<svg class="svg-icon" width="32" height="32" viewBox="0 0 32 32">
        <path d="M 9.402,28.893 C 8.765,28.64 8.119,28.477 7.613,28.378 c 1.408,1.402 3.235,2.31 5.485,2.653 -0.17,-0.16 -0.368,-0.346 -0.576,-0.557 -0.24,-0.144 -1.68,-1.005 -3.12,-1.581 z M 8.541,9.603 C 8.739,8.937 8.963,8.307 9.2,7.715 9.226,7.59 9.318,7.094 9.254,6.56 9.158,5.782 8.784,5.28 8.14,5.069 7.711,4.928 7.346,4.896 7.138,4.896 6.783,5.43 6.453,6.013 6.152,6.637 L 5.954,7.069 c -0.083,0.186 -0.163,0.378 -0.24,0.57 0.294,0.006 0.698,0.048 1.11,0.186 1.011,0.33 1.491,1.117 1.715,1.779 z m 2.905,19.719 C 11.027,28.836 10.608,28.301 10.252,27.748 10.076,27.575 8.447,26.001 6.489,25.262 6.063,25.099 5.635,25.003 5.35,24.952 c 0.454,1.082 1.03,2.035 1.722,2.851 0.518,0.074 1.514,0.256 2.506,0.65 0.659,0.259 1.322,0.582 1.869,0.87 z M 9.728,6.493 C 10.064,5.779 10.416,5.133 10.765,4.56 10.81,4.41 11.155,3.126 10.458,2.643 10.132,2.419 9.773,2.32 9.581,2.278 8.8,2.848 8.09,3.568 7.456,4.432 c 0.23,0.026 0.515,0.074 0.832,0.179 0.96,0.314 1.338,1.107 1.44,1.882 z M 11.37,3.642 c 0.47,-0.672 0.915,-1.197 1.283,-1.558 0.557,-0.55 1.056,-0.941 1.498,-1.219 -0.045,0.003 -0.093,0.003 -0.138,0.006 0,0 -1.459,0.01 -2.669,0.458 -0.003,0 0,0 -0.006,0.003 -0.429,0.16 -0.838,0.365 -1.235,0.608 0.195,0.07 0.416,0.173 0.63,0.317 0.483,0.333 0.624,0.886 0.637,1.386 z M 7.728,20.166 C 7.664,19.574 7.613,18.934 7.584,18.243 7.578,18.214 7.213,16.406 6.198,15.609 5.187,14.815 4.438,14.726 4.134,14.732 c -0.029,0.365 -0.054,0.736 -0.07,1.11 -0.029,0.64 -0.038,1.261 -0.029,1.869 0.33,0.016 1.008,0.093 1.747,0.454 0.88,0.429 1.514,1.238 1.946,2 z m 0.08,-7.254 C 7.923,12.115 8.077,11.354 8.259,10.624 8.249,10.352 8.131,8.755 6.672,8.275 6.221,8.128 5.782,8.109 5.526,8.112 5.209,8.963 4.94,9.875 4.72,10.838 c 0.33,0.016 0.797,0.064 1.171,0.208 1.066,0.41 1.622,1.181 1.917,1.866 z m 4.013,14.307 C 11.043,25.661 9.427,22.422 9.805,15.801 10.109,10.502 11.719,6.838 13.053,4.659 L 13.047,4.653 C 13.05,4.65 13.063,4.637 13.079,4.618 13.953,3.204 14.705,2.423 14.887,2.24 c 0.704,-0.694 1.315,-1.136 1.83,-1.414 -0.496,0 -0.995,0 -1.462,0.006 -0.534,0.202 -1.302,0.637 -2.266,1.59 -0.902,0.886 -2.259,2.765 -3.325,5.414 0,0.006 -0.003,0.013 -0.006,0.022 H 9.655 c -0.858,2.138 -1.523,4.774 -1.606,7.802 -0.07,2.64 0.109,4.646 0.413,6.23 0.003,0.013 0.006,0.026 0.006,0.029 H 8.465 c 0.461,2.374 1.21,3.786 1.821,4.941 1.002,1.888 3.078,3.779 3.635,4.269 0.259,0.022 0.726,0.058 1.235,0.086 -0.029,-0.026 -0.042,-0.029 -0.067,-0.054 -0.915,-0.704 -2.291,-1.99 -3.267,-3.942 z M 22.554,1.187 v 0 c 0.003,0 -1.098,-0.246 -3.667,-0.33 C 18.65,0.851 18.381,0.844 18.093,0.838 17.648,0.889 16.653,1.174 15.226,2.582 14.941,2.86 14.65,3.193 14.356,3.574 14.938,3.187 15.713,2.768 16.692,2.435 18.273,1.901 19.412,1.968 19.726,2 19.515,2.131 19.31,2.285 19.105,2.464 18.593,2.48 17.803,2.566 16.846,2.893 14.571,3.661 13.422,4.957 13.412,4.97 L 13.409,4.967 C 13.041,5.575 12.683,6.257 12.347,7.012 12.942,6.474 13.813,5.828 14.91,5.425 15.822,5.089 16.708,5.07 17.118,5.083 17.035,5.24 16.952,5.4 16.868,5.563 16.442,5.569 15.761,5.624 15.073,5.877 13.163,6.578 11.94,8.107 11.844,8.235 11.617,8.84 11.406,9.48 11.217,10.155 11.713,9.653 12.455,9.025 13.383,8.632 14.5,8.155 15.37,8.13 15.799,8.158 c -0.051,0.157 -0.102,0.314 -0.15,0.474 -0.406,-0.01 -1.146,0.045 -2.077,0.442 -1.456,0.621 -2.461,1.901 -2.618,2.112 -0.189,0.806 -0.349,1.658 -0.467,2.55 0.445,-0.56 1.158,-1.274 2.173,-1.763 1.018,-0.49 1.901,-0.522 2.278,-0.506 -0.032,0.157 -0.064,0.317 -0.093,0.477 -0.358,-0.003 -1.117,0.048 -1.974,0.461 -1.565,0.752 -2.368,2.122 -2.499,2.358 -0.032,0.352 -0.061,0.707 -0.083,1.072 -0.032,0.541 -0.048,1.056 -0.051,1.552 0.387,-0.605 1.05,-1.437 2.045,-2.045 1.002,-0.611 1.824,-0.71 2.173,-0.723 -0.016,0.16 -0.032,0.323 -0.048,0.483 -0.32,0.022 -1.024,0.128 -1.875,0.65 -1.578,0.963 -2.275,2.595 -2.285,2.614 l -0.006,-0.003 c 0.019,0.896 0.077,1.715 0.166,2.461 0.336,-0.813 0.998,-1.926 2.243,-2.618 0.669,-0.371 1.277,-0.464 1.603,-0.483 -0.003,0.16 -0.006,0.323 -0.006,0.483 -0.282,0.022 -0.8,0.109 -1.363,0.422 -1.894,1.04 -2.317,3.261 -2.323,3.283 v 0 c 0.147,0.867 0.333,1.619 0.531,2.269 0.176,-0.669 0.554,-1.565 1.376,-2.333 0.698,-0.653 1.52,-0.826 1.869,-0.874 0.013,0.16 0.026,0.32 0.042,0.48 -0.301,0.045 -1.002,0.202 -1.584,0.749 -1.29,1.203 -1.366,2.787 -1.373,2.954 0.301,0.794 0.598,1.398 0.829,1.853 0.099,0.195 0.202,0.384 0.307,0.566 0.064,-0.579 0.24,-1.376 0.717,-2.074 0.493,-0.726 1.216,-1.008 1.568,-1.107 0.035,0.157 0.074,0.314 0.112,0.467 -0.288,0.086 -0.886,0.32 -1.283,0.909 -0.662,0.973 -0.672,2.202 -0.666,2.512 0.586,0.845 1.226,1.514 1.786,2.006 -0.096,-0.426 -0.128,-0.925 0.032,-1.386 0.253,-0.73 0.87,-0.986 1.229,-1.075 0.08,0.154 0.16,0.298 0.243,0.438 -0.186,0.026 -0.8,0.163 -1.021,0.794 -0.221,0.631 0.032,1.389 0.198,1.786 0.246,0.186 0.451,0.323 0.592,0.413 0.416,0.013 0.848,0.019 1.277,0.01 1.453,-0.029 3.245,-0.122 4.157,-0.477 0.003,0 0.003,-0.003 0.006,-0.003 0.918,-0.333 1.766,-1.05 2.592,-2.064 l -0.157,-0.941 c -1.229,1.446 -2.33,2.15 -3.773,2.038 -3.459,-0.272 -5.43,-6.57 -4.832,-14.176 0.595,-7.571 3.565,-13.584 6.88,-13.325 3.302,0.259 5.286,6.525 4.794,12.8 -0.314,3.968 -0.867,6.25 -1.632,6.749 -0.829,0.461 -1.235,-0.963 -1.235,-2.701 0,-0.378 0.029,-1.13 0.102,-2.086 l 0.582,-7.77 -0.966,-0.307 -0.189,2.362 C 23.326,9.93 22.69,8.525 21.56,8.525 c -1.635,0 -3.341,3.664 -3.341,8.522 0,3.763 1.171,6.227 2.589,6.227 1.085,0 1.824,-1.302 2.387,-2.877 0.275,1.712 1.011,2.979 2.032,2.624 v -0.006 c 1.075,-0.397 1.917,-2.95 2.304,-7.853 C 28.078,8.199 25.944,1.748 22.555,1.188 Z m -1.53,19.965 c -1.027,0 -1.766,-1.574 -1.766,-4.278 0,-3.523 1.158,-6.227 2.371,-6.227 1.011,0 1.763,1.846 1.763,4.349 0.003,3.213 -1.126,6.157 -2.368,6.157 z M 7.555,16.659 c 0,-0.33 0.006,-0.666 0.013,-1.014 C 7.581,15.171 7.61,14.711 7.648,14.259 7.642,14.096 7.517,12.182 5.722,11.494 5.376,11.36 4.912,11.324 4.618,11.315 4.426,12.249 4.276,13.232 4.18,14.253 c 0.422,0.003 1.251,0.144 2.317,0.979 0.47,0.371 0.816,0.912 1.059,1.427 z m 2.007,9.847 C 9.322,26.039 9.069,25.508 8.823,24.88 v 0 C 8.81,24.861 7.681,22.925 6.001,22.141 5.284,21.805 4.676,21.751 4.411,21.744 c 0.179,0.96 0.426,1.856 0.733,2.685 0.234,0.032 0.867,0.138 1.517,0.384 1.155,0.432 2.186,1.13 2.902,1.693 z M 8.33,23.398 C 8.215,22.982 8.106,22.534 8.01,22.044 H 8.004 C 7.998,22.018 7.278,19.426 5.572,18.594 4.929,18.28 4.337,18.207 4.042,18.191 c 0.032,1.082 0.128,2.106 0.285,3.072 0.259,-0.003 0.998,0.029 1.878,0.442 0.88,0.41 1.603,1.091 2.125,1.693 z" id="path2" style="fill:currentColor"></path>
    </svg>